<svg xmlns="http://www.w3.org/2000/svg" width="32" height="32" fill="none">
  <path fill="#1CA109" d="M31.5 8.6 23.4.5A1.6 1.6 0 1 0 21 2.7l2.9 3-8.7 8.7-1.6-1.6a4.8 4.8 0 0 0-6.8 0l-5.5 5.5A4.8 4.8 0 0 0 0 21.7v5.5A4.8 4.8 0 0 0 4.8 32h5.5a4.8 4.8 0 0 0 3.4-1.4l5.5-5.5a4.8 4.8 0 0 0 0-6.8l-1.6-1.6L26.3 8l3 3a1.6 1.6 0 0 0 2.2 0 1.6 1.6 0 0 0 0-2.4ZM16.9 22.8l-5.5 5.5a1.6 1.6 0 0 1-1 .5H4.7a1.6 1.6 0 0 1-1.6-1.6v-5.5a1.6 1.6 0 0 1 .5-1.2L9.2 15a1.6 1.6 0 0 1 2.2 0l1.6 1.6-1.4 1.5a1.6 1.6 0 0 0 1.2 2.7c.4 0 .8-.2 1.1-.5l1.4-1.4 1.6 1.6a1.6 1.6 0 0 1 0 2.3Z"/>
</svg>