<svg xmlns="http://www.w3.org/2000/svg" width="13" height="18" fill="none">
  <path fill="#9AC89F" d="M6.5 4.05c.62 0 1.2.24 1.64.66a2.22 2.22 0 0 1-.75 3.67 2.39 2.39 0 0 1-2.53-.49 2.22 2.22 0 0 1 0-3.18 2.36 2.36 0 0 1 1.64-.66ZM6.5 0a6.6 6.6 0 0 1 4.6 1.85A6.2 6.2 0 0 1 13 6.3C13 11.03 6.5 18 6.5 18S0 11.03 0 6.3a6.2 6.2 0 0 1 1.9-4.45A6.6 6.6 0 0 1 6.5 0Zm0 1.8c-1.23 0-2.41.47-3.28 1.32A4.43 4.43 0 0 0 1.86 6.3c0 .9 0 2.7 4.64 8.74C11.14 9 11.14 7.2 11.14 6.3c0-1.2-.49-2.34-1.36-3.18A4.72 4.72 0 0 0 6.5 1.8Z"/>
</svg>