<svg xmlns="http://www.w3.org/2000/svg" width="37" height="32" fill="none">
  <path fill="#1CA109" d="M11.1 32c-1.1 0-2-.4-2.9-1.2a4 4 0 0 1-1.2-3V11.5L3.8 3.6h-2c-.5 0-1-.2-1.3-.6-.3-.3-.5-.7-.5-1.2A1.7 1.7 0 0 1 1.8 0H5c.4 0 .7.1 1 .3l.7.8 2.4 6h26c.7 0 1.2.3 1.6.9.3.5.4 1.1 0 1.7l-5 9.9c1.5.2 2.8 1 3.8 2a6 6 0 0 1 1.5 4.2 6 6 0 0 1-1.8 4.4A5.8 5.8 0 0 1 31 32c-1.8 0-3.2-.6-4.4-1.8a6 6 0 0 1-1.8-4.4 5.9 5.9 0 0 1 .8-3.1l-5.7-.6-5.3 8A4 4 0 0 1 11 32Zm16.8-12.7 4.4-8.6H10.6l2.2 5.3a3.5 3.5 0 0 0 2.9 2.2l12.2 1.1Zm-16.8 9.1.4-.2 4.3-6.4a6.8 6.8 0 0 1-5.2-2.8v9l.1.3.4.1Zm19.7 0c.8 0 1.4-.2 2-.7.4-.6.7-1.2.7-2 0-.7-.3-1.3-.8-1.8s-1.1-.8-1.9-.8c-.7 0-1.3.3-1.8.8-.6.5-.8 1.1-.8 1.9 0 .7.2 1.3.8 1.9.5.5 1.1.7 1.8.7Z"/>
</svg>