<svg xmlns="http://www.w3.org/2000/svg" width="18" height="19" fill="none">
  <path fill="#9AC89F" d="M9 8.35a.97.97 0 0 1-.71-.28.95.95 0 0 1-.29-.7c0-.29.1-.52.29-.71.19-.2.43-.29.71-.29a.98.98 0 0 1 1 1c0 .27-.1.5-.29.7a.97.97 0 0 1-.71.28Zm4 0a.97.97 0 0 1-.71-.28.95.95 0 0 1-.29-.7c0-.29.1-.52.29-.71.19-.2.43-.29.71-.29a.97.97 0 0 1 1 1c0 .27-.1.5-.29.7a.97.97 0 0 1-.71.28Zm4 0a.97.97 0 0 1-.71-.28.95.95 0 0 1-.29-.7c0-.29.1-.52.29-.71.19-.2.43-.29.71-.29a.97.97 0 0 1 1 1c0 .27-.1.5-.29.7a.97.97 0 0 1-.71.28Zm-.05 9.9c-2.15 0-4.25-.47-6.29-1.42A19.05 19.05 0 0 1 1.44 7.7 14.37 14.37 0 0 1 0 1.47 1.02 1.02 0 0 1 1.05.43H5.1a1 1 0 0 1 .63.23c.18.14.29.33.32.56L6.7 4.7c.03.23.03.44-.01.63a.91.91 0 0 1-.29.5L3.97 8.26c.7 1.2 1.58 2.3 2.64 3.35a18.6 18.6 0 0 0 3.49 2.7l2.35-2.33a1.63 1.63 0 0 1 1.3-.4l3.45.7a.9.9 0 0 1 .57.33.9.9 0 0 1 .23.6v4.01a1.02 1.02 0 0 1-1.05 1.04ZM3.03 6.37l1.65-1.63-.43-2.33H2.02c.09.68.2 1.35.35 2 .15.67.37 1.32.65 1.96Zm8.95 8.86a12.5 12.5 0 0 0 4.02 1v-2.18l-2.35-.47-1.68 1.65Z"/>
</svg>